<svg xmlns="http://www.w3.org/2000/svg" viewBox="0 0 32 32">
    <defs>
        <style>.cls-1{fill:#999;fill-rule:evenodd;}</style>
    </defs>
    <title>Asset 167</title>
    <g id="Layer_2" data-name="Layer 2">
        <g id="Misc">
            <path class="cls-1"
                d="M32,16A16,16,0,1,1,16,0,16,16,0,0,1,32,16ZM16,6.75a8.94,8.94,0,0,0-3.44.68,9.09,9.09,0,0,0-2.92,2A8.93,8.93,0,0,0,7,15.75a8.84,8.84,0,0,0,.18,1.79,2.46,2.46,0,0,0-.6,3.14l1.65,2.85a2.45,2.45,0,0,0,3.34.89l1.63-.94a1,1,0,0,0,.36-1.34l-3.11-5.39a1,1,0,0,0-1.34-.35l-.37.21a8.11,8.11,0,0,1-.05-.86,7.32,7.32,0,0,1,12.48-5.17A7.65,7.65,0,0,1,22.76,13a7.43,7.43,0,0,1,.55,2.8,8.11,8.11,0,0,1,0,.86l-.37-.21a1,1,0,0,0-1.34.35l-3.11,5.39a1,1,0,0,0,.36,1.34l1.63.94a2.45,2.45,0,0,0,3.34-.89l1.65-2.85a2.46,2.46,0,0,0-.6-3.14A8.84,8.84,0,0,0,25,15.75a8.94,8.94,0,0,0-.68-3.44,9.12,9.12,0,0,0-1.95-2.92,9.25,9.25,0,0,0-2.93-2A8.94,8.94,0,0,0,16,6.75" />
        </g>
    </g>
</svg>