<svg xmlns="http://www.w3.org/2000/svg" viewBox="0 0 32 32">
    <defs>
        <style>.cls-1{fill:#999;}</style>
    </defs>
    <title>Asset 144</title>
    <g id="Layer_2" data-name="Layer 2">
        <g id="Misc">
            <path class="cls-1"
                d="M16,0A16,16,0,1,0,32,16,16,16,0,0,0,16,0Zm.28,12.16a.59.59,0,0,0,.33-.09.48.48,0,0,0,.1-.25,2.92,2.92,0,0,0,0-.42l-.16-3.49a.54.54,0,0,1,.13-.37h.09a.32.32,0,0,1,.24.09l7.73,7.87a1.36,1.36,0,0,1,.22.27,2,2,0,0,1,0,.36,1.17,1.17,0,0,1-.25.38L17,24.37a.28.28,0,0,1-.23.09c-.1,0-.23,0-.23-.12l.17-3.75a2.84,2.84,0,0,0,0-.42.48.48,0,0,0-.09-.24.59.59,0,0,0-.33-.09l-8.47-.13C7.36,19.7,7,19,7,18.11V13.88c0-.88.36-1.6.81-1.6Z" />
        </g>
    </g>
</svg>