<svg xmlns="http://www.w3.org/2000/svg" viewBox="0 0 32 32">
    <defs>
        <style>.cls-1{fill:#999;}</style>
    </defs>
    <title>Asset 148</title>
    <g id="Layer_2" data-name="Layer 2">
        <g id="Misc">
            <path class="cls-1"
                d="M32,16A16,16,0,1,1,16,0,16,16,0,0,1,32,16ZM17.48,9,17,9l-.08.42.5.09ZM15.09,22.62l-.5-.09-.07.43L15,23ZM18.67,9.41l-.47-.17-.15.4.47.17ZM14,22.36l-.47-.17-.15.4.47.17Zm6.81-11.64-.38-.33-.28.33.38.33ZM11.9,21.28,11.52,21l-.28.33.38.33Zm9.71-9.66-.33-.38-.33.28.33.38ZM11.05,20.48l-.33-.38-.33.28.33.38ZM22.77,13.8l-.18-.47-.4.15.17.47Zm-13,4.72-.17-.47-.4.15.17.47ZM23,15,23,14.52l-.43.07.09.5ZM9.47,17.41l-.09-.5L9,17l.08.49ZM23,17l-.42-.08-.09.5.43.07ZM9.47,14.59,9,14.52,9,15l.42.08Zm13.3,3.61-.41-.15-.17.47.4.15Zm-13-4.72-.4-.15-.17.47.4.15Zm11,7.8L20.48,21l-.38.33.28.33ZM11.9,10.72l-.28-.33-.38.33.28.33Zm6.77,11.87-.15-.4-.47.17.15.4ZM14,9.64l-.15-.4-.47.17.15.4ZM17.48,23l-.07-.43-.5.09L17,23ZM15.09,9.38,15,9,14.52,9l.07.43Zm6.52,11-.33-.28-.33.38.33.28ZM11.05,11.52l-.33-.28-.33.38.33.28Zm-.6.84-.76-.44-.38.65.77.44Zm12.24,7.07L21.92,19l-.37.65.76.44ZM13,10.08l-.44-.77-.65.38.44.76Zm7.07,12.23-.44-.76-.65.37.44.77Zm2.61-9.74-.38-.65-.76.44.37.65ZM10.45,19.64,10.08,19l-.77.44.38.65Zm9.63-10-.65-.38-.44.77.65.37ZM13,21.92l-.65-.37-.44.76.65.38ZM16.5,8h-1V9.78h1Zm0,14.22h-1V24h1ZM24,15.5H22.22v1H24Zm-14.22,0H8v1H9.78ZM26,16A10,10,0,1,0,16,26,10,10,0,0,0,26,16Zm-2,0a8,8,0,1,1-8-8A8,8,0,0,1,24,16Zm-7.5-5.09h-1v5.62h1Zm8.25-2L25,8.68a.43.43,0,0,0,0-.61L23.86,6.91a.43.43,0,0,0-.61,0L23,7.18a.43.43,0,0,0,0,.61L24.14,9A.43.43,0,0,0,24.75,9Z" />
        </g>
    </g>
</svg>